<?xml version="1.0" encoding="UTF-8"?> <!-- Generator: Adobe Illustrator 26.0.0, SVG Export Plug-In . SVG Version: 6.00 Build 0) --> <svg xmlns="http://www.w3.org/2000/svg" xmlns:xlink="http://www.w3.org/1999/xlink" version="1.1" id="Layer_1" x="0px" y="0px" viewBox="0 0 253 43" style="enable-background:new 0 0 253 43;" xml:space="preserve"> <style type="text/css"> .st0{fill:#000000;} </style> <path class="st0" d="M16.9,9.9c-4.2,0-7.7,1.2-10.6,3.5s-4.8,5.6-5.7,9.7c-1.1,4.9-0.5,8.8,1.8,11.6c2.2,2.8,5.5,4.2,10.1,4.2 c7.4,0,12.3-3.1,14.8-9.3h-8c-1.3,2.1-3.3,3.1-6,3.1c-1.8,0-3.2-0.5-4.1-1.5c-1-1-1.4-2.4-1.3-4.4h20.5c0.1-0.2,0.2-0.8,0.4-1.7 c1.1-4.5,0.5-8.2-1.7-11.1C24.8,11.3,21.4,9.9,16.9,9.9z M16.2,16.1c1.7,0,3,0.5,3.9,1.5c0.9,1,1.3,2.3,1.2,4H8.9 C10.3,17.9,12.7,16.1,16.2,16.1z"></path> <path class="st0" d="M61,8c-1.8,8.8-3,14.8-3.6,18.2c-0.9-2.7-2.2-6.4-3.9-10.9L47.4,0h-9.6l-8.2,38.3h8.7l1.7-8 c1.2-5.5,2.4-11.6,3.6-18.1c1,3.2,2.3,6.8,3.9,10.9l6.1,15.3h9.6L71.3,0h-8.7L61,8z"></path> <path class="st0" d="M86.8,9.9c-4.2,0-7.7,1.2-10.6,3.5c-2.9,2.4-4.8,5.6-5.7,9.7c-1.1,4.9-0.5,8.8,1.8,11.6 c2.2,2.8,5.5,4.2,10.1,4.2c7.4,0,12.3-3.1,14.8-9.3h-8c-1.3,2.1-3.3,3.1-6,3.1c-1.8,0-3.2-0.5-4.1-1.5c-1-1-1.4-2.4-1.3-4.4h20.5 c0.1-0.2,0.2-0.8,0.4-1.7c1.1-4.5,0.5-8.2-1.7-11.1C94.7,11.3,91.4,9.9,86.8,9.9z M86.2,16.1c1.7,0,3,0.5,3.9,1.5 c0.9,1,1.3,2.3,1.2,4H78.8C80.2,17.9,82.6,16.1,86.2,16.1z"></path> <path class="st0" d="M112.4,39.1c8.2,0,12.8-2.7,14-8.1c1.1-5.2-1.5-8.3-7.8-9.4l-3.9-0.5c-1.4-0.2-2.4-0.6-2.9-1.1 c-0.5-0.5-0.8-1.2-0.6-2c0.3-1.6,1.9-2.5,4.8-2.5c1.6,0,2.8,0.3,3.5,0.9c0.7,0.6,1,1.6,0.8,3h7.7c0.4-3-0.3-5.3-2.2-7 c-1.9-1.7-4.9-2.5-9.2-2.5c-7.9,0-12.4,2.6-13.4,7.7c-1.1,5.3,1.3,8.5,7.3,9.5l3.7,0.6c1.6,0.3,2.6,0.6,3.2,1.1 c0.5,0.5,0.8,1.2,0.6,2.2c-0.4,1.7-2,2.5-4.8,2.5c-1.9,0-3.2-0.3-3.9-0.9c-0.8-0.6-1.1-1.7-0.9-3.2h-8.2c-0.5,3.3,0.3,5.8,2.3,7.3 C104.5,38.3,107.8,39.1,112.4,39.1z"></path> <path class="st0" d="M147.9,16.7l1.3-6.1h-5.4l1.8-8.2h-8.4l-1.7,8.2h-4.1l-1.3,6.1h4.1l-2.6,12.1c-1.5,6.5,1.3,9.7,8.3,9.7 c0.6,0,1.8-0.1,3.4-0.3l1.3-6.2h-2.2c-2.1,0-3-1.1-2.5-3.4l2.5-11.9H147.9z"></path> </svg> 